<?xml version="1.0" standalone="no"?>
<!DOCTYPE svg PUBLIC "-//W3C//DTD SVG 20010904//EN"
 "http://www.w3.org/TR/2001/REC-SVG-20010904/DTD/svg10.dtd">
<svg version="1.0" xmlns="http://www.w3.org/2000/svg"
 width="700.000000pt" height="700.000000pt" viewBox="0 0 700.000000 700.000000"
 preserveAspectRatio="xMidYMid meet">
<metadata>
Created by potrace 1.14, written by Peter Selinger 2001-2017
</metadata>
<g transform="translate(0.000000,700.000000) scale(0.100000,-0.100000)"
fill="#000000" stroke="none">
<path d="M3488 6645 c-2 -1 -28 -5 -58 -8 -203 -22 -374 -80 -511 -173 -145
-98 -253 -248 -344 -478 -41 -106 -31 -157 90 -441 115 -269 146 -369 152
-494 6 -112 1 -121 -35 -54 -10 21 -30 56 -42 78 -13 22 -45 79 -71 126 -94
172 -248 416 -294 465 -5 6 -35 39 -65 74 -130 148 -289 238 -470 266 -19 3
-55 10 -80 15 -74 17 -269 20 -331 5 -54 -12 -129 -56 -159 -93 -87 -106 -127
-200 -171 -403 -6 -30 -13 -138 -14 -240 -3 -149 1 -206 16 -290 11 -58 21
-109 23 -115 1 -5 8 -30 15 -55 81 -299 314 -793 576 -1220 87 -142 299 -465
307 -468 5 -2 8 -8 8 -13 0 -6 5 -15 10 -22 6 -7 59 -79 117 -162 58 -82 107
-152 109 -154 2 -2 59 10 126 27 68 17 138 33 155 37 l33 7 -1 121 c0 67 3
185 7 262 4 77 8 181 8 232 0 51 2 90 4 88 3 -3 70 -261 78 -302 5 -28 77
-265 97 -318 16 -45 23 -46 142 -32 176 21 481 27 688 14 83 -6 108 -5 111 5
17 56 169 497 176 513 6 13 8 -20 4 -95 -4 -63 -8 -137 -9 -165 -1 -27 -5
-104 -9 -171 l-7 -121 49 -6 c126 -15 446 -101 605 -163 l49 -19 31 36 c18 20
40 45 49 57 31 38 115 186 174 304 32 64 65 127 75 139 16 21 16 20 13 -32
-12 -186 -65 -353 -158 -494 l-46 -69 98 -49 c85 -43 168 -90 238 -134 21 -13
25 -7 112 139 125 213 125 212 227 413 201 393 330 721 419 1068 20 75 38 152
41 169 4 18 10 51 15 73 5 22 11 58 15 80 3 22 10 67 15 100 32 206 35 625 6
815 -2 14 -7 45 -11 70 -46 298 -168 573 -310 698 -119 104 -237 115 -474 42
-86 -27 -234 -87 -301 -123 -153 -81 -317 -242 -459 -450 -59 -87 -191 -341
-191 -368 0 -10 -4 -21 -10 -24 -5 -3 -10 -15 -10 -25 0 -10 -5 -22 -10 -25
-6 -4 -8 6 -6 27 3 18 8 74 11 123 4 50 8 92 10 95 2 3 6 30 10 60 4 30 9 58
11 62 3 4 7 24 10 45 11 89 90 285 146 366 23 32 25 22 -37 230 -80 272 -127
360 -238 446 -83 64 -162 81 -373 80 -95 -1 -174 -2 -176 -4z"/>
<path d="M3118 2685 c-2 -2 -43 -6 -93 -10 -49 -3 -101 -8 -115 -10 -14 -2
-45 -7 -70 -10 -209 -28 -498 -94 -501 -113 0 -4 -2 -16 -4 -27 -2 -11 -7 -47
-11 -80 -3 -33 -7 -67 -9 -75 -1 -8 -6 -51 -11 -95 -4 -44 -8 -82 -9 -85 -1
-3 -5 -36 -9 -75 -4 -38 -9 -81 -11 -95 -6 -36 -15 -117 -21 -170 -2 -25 -6
-61 -9 -80 -2 -19 -7 -60 -10 -90 -3 -30 -12 -107 -20 -170 -8 -63 -17 -135
-20 -160 -3 -25 -8 -67 -11 -94 -3 -26 -2 -46 3 -44 74 40 229 97 308 113 233
50 339 60 595 59 235 0 348 -9 602 -49 30 -5 224 -45 338 -70 14 -4 70 -20
125 -36 243 -74 484 -179 628 -275 58 -39 77 -48 78 -35 0 9 2 23 3 31 4 17
15 146 31 345 3 39 8 93 10 120 3 28 7 77 10 110 3 33 7 83 10 110 2 28 7 82
10 120 3 39 8 93 10 120 5 48 10 102 21 230 2 33 6 73 8 88 3 24 -4 33 -55 68
-32 21 -60 39 -62 39 -2 0 -43 23 -91 50 -48 28 -89 50 -91 50 -2 0 -41 17
-87 38 -46 21 -99 44 -118 51 -19 7 -44 17 -55 21 -45 19 -253 84 -304 95
-108 24 -214 46 -246 50 -22 4 -51 8 -65 11 -14 2 -54 7 -90 10 -36 3 -76 8
-90 11 -27 5 -497 13 -502 8z"/>
<path d="M2849 1126 c-2 -2 -35 -7 -74 -10 -38 -4 -77 -9 -85 -11 -8 -2 -28
-7 -45 -10 -16 -2 -40 -7 -52 -10 -13 -3 -31 -7 -41 -9 -102 -23 -251 -89
-319 -141 l-43 -33 40 -32 c21 -17 48 -39 59 -48 10 -10 29 -25 40 -34 11 -10
65 -47 118 -84 188 -127 479 -252 698 -300 53 -11 133 -26 160 -29 17 -2 48
-7 70 -11 59 -10 461 -13 530 -4 33 4 85 11 115 15 202 26 524 116 714 200 65
29 65 28 -4 94 -202 192 -742 381 -1250 436 -30 4 -68 9 -85 12 -36 6 -540 15
-546 9z"/>
</g>
</svg>
